<?xml version="1.0" encoding="UTF-8"?>
<!DOCTYPE svg PUBLIC "-//W3C//DTD SVG 1.1//EN" "http://www.w3.org/Graphics/SVG/1.1/DTD/svg11.dtd">
<!-- Creator: CorelDRAW 2020 (64-Bit) -->
<svg xmlns="http://www.w3.org/2000/svg" xml:space="preserve" width="148px" height="39px" version="1.1" style="shape-rendering:geometricPrecision; text-rendering:geometricPrecision; image-rendering:optimizeQuality; fill-rule:evenodd; clip-rule:evenodd"
viewBox="0 0 119.83 31.93"
 xmlns:xlink="http://www.w3.org/1999/xlink"
 xmlns:xodm="http://www.corel.com/coreldraw/odm/2003">
 <defs>
  <style type="text/css">
   <![CDATA[
    .fil0 {fill:#ED3237;fill-rule:nonzero}
   ]]>
  </style>
 </defs>
 <g id="Layer_x0020_1">
  <metadata id="CorelCorpID_0Corel-Layer"/>
  <path class="fil0" d="M0 31.93c0,-5.32 0,-10.64 0,-15.96 0,-5.32 0,-10.65 0,-15.97 4.82,0 9.65,0 14.48,0 0,1.69 0,3.37 0,5.06 -3.41,0.08 -6.81,0.17 -10.21,0.25 0,2.48 0,4.97 0,7.45 2.93,-0.16 5.87,-0.33 8.82,-0.51 0,1.71 0,3.4 0,5.1 -2.95,0.24 -5.89,0.48 -8.82,0.71 0,2.23 0,4.45 0,6.67 0,2.22 0,4.44 0,6.65 -1.43,0.19 -2.86,0.37 -4.27,0.55zm18.08 -2.53c0,-4.85 0,-9.71 0,-14.57 0,-4.86 0,-9.72 0,-14.58 1.42,0 2.84,0 4.27,-0.01 0,3.95 0,7.9 0,11.84 0,3.94 0,7.89 0,11.83 3.52,-0.42 7.04,-0.83 10.57,-1.22 0,1.54 0,3.08 0,4.61 -4.95,0.67 -9.9,1.38 -14.84,2.1zm17.71 -2.46c0,-4.49 0,-8.98 0,-13.47 0,-4.48 0,-8.98 0,-13.47 1.42,0 2.84,0 4.27,0 0,4.41 0,8.82 0,13.23 0,4.41 0,8.82 0,13.22 -1.43,0.16 -2.85,0.32 -4.27,0.49zm6.19 -0.68c1.21,-2.39 2.41,-4.76 3.63,-7.09 1.2,-2.32 2.42,-4.62 3.64,-6.89 -1.1,-2.02 -2.22,-4.04 -3.31,-6.08 -1.09,-2.05 -2.19,-4.12 -3.28,-6.2 1.65,0 3.31,0 4.96,0 0.68,1.28 1.39,2.55 2.07,3.82 0.69,1.26 1.39,2.52 2.09,3.78 0.68,-1.28 1.38,-2.55 2.06,-3.81 0.68,-1.27 1.39,-2.53 2.08,-3.79 1.66,0 3.31,0 4.98,0 -1.11,2.02 -2.22,4.04 -3.31,6.06 -1.09,2.03 -2.2,4.06 -3.3,6.1 1.2,2.18 2.43,4.37 3.62,6.55 1.2,2.19 2.42,4.38 3.63,6.58 -1.7,-0.01 -3.4,0.01 -5.1,0.03 -0.78,-1.4 -1.56,-2.81 -2.34,-4.22 -0.78,-1.4 -1.55,-2.82 -2.33,-4.23 -0.78,1.47 -1.56,2.95 -2.34,4.43 -0.78,1.49 -1.56,3 -2.34,4.51 -1.71,0.13 -3.41,0.28 -5.11,0.45zm21.76 -0.95c0,-4.21 0,-8.43 0,-12.65 0,-4.22 0,-8.44 0,-12.66 1.38,0 2.75,0 4.13,0 1.44,2.85 2.89,5.72 4.33,8.61 1.44,2.91 2.89,5.84 4.33,8.81 0,-2.9 0,-5.8 0,-8.71 0,-2.9 0,-5.8 0,-8.71 1.31,0 2.63,0 3.95,0 0,4.39 0,8.79 0,13.18 0,4.38 0,8.78 0,13.16 -1.43,-0.13 -2.84,-0.26 -4.26,-0.37 -1.42,-2.94 -2.85,-5.86 -4.27,-8.74 -1.41,-2.85 -2.86,-5.69 -4.27,-8.51 0,2.79 0,5.58 0,8.36 0,2.79 0,5.58 0,8.36 -1.32,-0.05 -2.64,-0.08 -3.94,-0.13zm21.24 1.5c0,-4.46 0,-8.93 0,-13.4 0,-4.47 0,-8.94 0,-13.41 5.2,0 10.4,0 15.6,0 0,1.63 0,3.25 0,4.88 -3.78,-0.09 -7.56,-0.18 -11.33,-0.26 0,2.02 0,4.04 0,6.06 3.51,0.18 7.02,0.37 10.53,0.56 0,1.63 0,3.25 0,4.86 -3.51,-0.28 -7.02,-0.55 -10.53,-0.8 0,1.23 0,2.47 0,3.7 0,1.23 0,2.47 0,3.7 3.91,0.42 7.82,0.87 11.74,1.34 0,1.63 0,3.26 0,4.89 -5.34,-0.77 -10.67,-1.49 -16.01,-2.12zm24.36 3.41c0,-4.18 0,-8.37 0,-12.55 0,-4.19 0,-8.38 0,-12.56 -2.08,-0.06 -4.15,-0.11 -6.23,-0.16 0,-1.65 0,-3.3 0,-4.95 5.58,0 11.15,0 16.72,0 0,1.8 0,3.6 0,5.4 -2.07,-0.06 -4.15,-0.12 -6.22,-0.17 0,4.28 0,8.56 0,12.84 0,4.28 0,8.56 0,12.84 -1.43,-0.23 -2.85,-0.46 -4.27,-0.69z"/>
 </g>
</svg>
